Coordinates
version=1
nRows=12
nColumns=24
inDegrees=yes

Units are S.I. units (second, meters, Newtons, ...)
Angles are in degrees.

endheader
time	pelvis_tilt	pelvis_list	pelvis_rotation	pelvis_tx	pelvis_ty	pelvis_tz	hip_flexion_r	hip_adduction_r	hip_rotation_r	knee_angle_r	ankle_angle_r	subtalar_angle_r	mtp_angle_r	hip_flexion_l	hip_adduction_l	hip_rotation_l	knee_angle_l	ankle_angle_l	subtalar_angle_l	mtp_angle_l	lumbar_extension	lumbar_bending	lumbar_rotation
      1.40416667	     -3.48210573	     -1.26480795	    -11.88954669	      0.99657048	      0.98303815	      0.27513143	    -17.37647462	      2.00933958	     10.42391740	     -6.43424429	      8.31379397	     -8.68534844	     15.68580044	     26.76014212	     -5.84871000	    -11.26445107	      4.31158612	      6.36542440	     -9.22304340	      7.47187151	      0.40206084	      1.59387430	     11.42751510
      1.40833333	     -3.46662978	     -1.19946072	    -11.97133681	      1.00268608	      0.98253298	      0.27485830	    -17.54734354	      1.84092660	     10.40287711	     -6.77904502	      8.13669760	     -8.62599881	     15.75296782	     26.75558308	     -5.79296697	    -11.29145051	      3.96722732	      6.54340114	     -9.38779198	      7.47488912	      0.43498101	      1.46735212	     11.50430432
      1.41250000	     -3.42422478	     -1.12298109	    -12.06368941	      1.00882580	      0.98209309	      0.27457829	    -17.71142592	      1.65282215	     10.32679557	     -7.18748693	      7.97461715	     -8.49506344	     16.00381517	     26.72577636	     -5.72430944	    -11.33011967	      3.56423905	      6.67396172	     -9.52418521	      7.48812793	      0.43434356	      1.34065744	     11.68585677
      1.41666667	     -3.40237932	     -1.03557159	    -12.13181796	      1.01503964	      0.98164291	      0.27429000	    -17.87263379	      1.46827351	     10.29740706	     -7.55793326	      7.74488664	     -8.49772593	     16.04855925	     26.72628419	     -5.63866185	    -11.32460187	      3.10071572	      6.78908706	     -9.68325366	      7.49348320	      0.47792161	      1.19270520	     11.71151921
      1.42083333	     -3.39603448	     -0.91514079	    -12.19106810	      1.02130192	      0.98117702	      0.27395824	    -17.96506482	      1.25344848	     10.13712374	     -8.01771816	      7.53219332	     -8.37157588	     19.03075315	     26.74414591	     -5.51474977	    -11.29998312	      2.61105435	      6.81324570	     -9.83872994	      7.87795929	      0.54745630	      0.99753137	     11.80675622
      1.42500000	     -3.33173978	     -0.81505337	    -12.26073835	      1.02759875	      0.98083597	      0.27365763	    -18.15228664	      1.04760469	     10.11853974	     -8.41555092	      7.24103898	     -8.38358941	     19.05851281	     26.69281089	     -5.40377834	    -11.25885730	      2.08106459	      6.89490474	     -9.99186814	      7.88599396	      0.53666526	      0.83196938	     11.90312288
      1.42916667	     -3.29168023	     -0.68970214	    -12.33036625	      1.03395830	      0.98048772	      0.27333620	    -18.28216061	      0.82367095	     10.06994729	     -8.87079786	      6.96195877	     -8.39980444	     19.07489744	     26.67250251	     -5.26916952	    -11.22766071	      1.52150813	      6.85994097	    -10.12813101	      7.89018924	      0.55539216	      0.65035096	     11.95632419
      1.43333333	     -3.23121112	     -0.54033915	    -12.38947376	      1.04037765	      0.98018206	      0.27299032	    -18.40759152	      0.57006126	      9.91469798	     -9.36546966	      6.68463379	     -8.25999364	     19.23986298	     26.61219902	     -5.09409532	    -11.15834070	      0.98206718	      6.76652856	    -10.32636098	      7.93572782	      0.59251889	      0.41941004	     12.20518734
      1.43750000	     -3.18915483	     -0.38213027	    -12.44890903	      1.04685378	      0.97988134	      0.27264474	    -18.50573267	      0.31743675	      9.81506102	     -9.87383021	      6.34997972	     -8.28230588	     19.29017907	     26.58465908	     -4.91498372	    -11.10706199	      0.39428223	      6.68290123	    -10.46271450	      7.95106201	      0.65704834	      0.18730631	     12.24329416
      1.44166667	     -3.15560236	     -0.20021059	    -12.51429008	      1.05333474	      0.97959073	      0.27226159	    -18.53982582	      0.03590376	      9.62566142	    -10.47577575	      6.07810267	     -8.07237741	     19.68006816	     26.53945976	     -4.70234872	    -10.97102846	     -0.13563742	      6.42403970	    -10.77590845	      8.06438060	      0.71366221	     -0.06278165	     12.45490763
      1.44583333	     -3.08471729	     -0.01912032	    -12.54909860	      1.05988316	      0.97938193	      0.27186824	    -18.64828837	     -0.23840279	      9.49502000	    -10.99777400	      5.60305704	     -8.17910080	     23.68528851	     26.47093935	     -4.47340731	    -10.85424638	     -0.70215913	      6.15709062	    -11.02209932	      9.32666398	      0.74998442	     -0.33303299	     12.46708844
      1.45000000	     -3.08007224	      0.18155236	    -12.58969574	      1.06643871	      0.97910652	      0.27144649	    -18.62122902	     -0.51862297	      9.30358756	    -11.65042772	      5.25036340	     -8.07163441	     23.73505930	     26.49712449	     -4.24417443	    -10.79965657	     -1.32723383	      5.87868326	    -11.11755340	      9.34917559	      0.86872587	     -0.59725842	     12.57633744
